<svg width="1280" height="720" xmlns="http://www.w3.org/2000/svg" xmlns:xlink="http://www.w3.org/1999/xlink" overflow="hidden"><defs><clipPath id="clip0"><rect x="0" y="0" width="1280" height="720"/></clipPath></defs><g clip-path="url(#clip0)"><rect x="0" y="0" width="1280" height="720" fill="#FFFFFF"/><text font-family="DengXian,DengXian_MSFontService,sans-serif" font-weight="700" font-size="24" transform="translate(27.207 98)">0. <tspan font-size="24" x="25.8333" y="0">医疗服务</tspan><tspan font-size="24" x="121.833" y="0">2C</tspan><tspan font-size="24" x="150" y="0">产品思考框架</tspan><tspan font-size="24" x="688.009" y="1">1. </tspan>思考机会分析<tspan fill="#4472C4" font-family="Wingdings,Wingdings_MSFontService,sans-serif" font-weight="400" font-size="13" x="692.579" y="30"></tspan><tspan font-weight="400" font-size="13" x="722.579" y="30">成功的</tspan><tspan font-weight="400" font-size="13" x="762.579" y="30">C</tspan><tspan font-weight="400" font-size="13" x="770.912" y="30">端产品要求有优秀的留存和优秀的商业模式</tspan><tspan fill="#4472C4" font-family="Wingdings,Wingdings_MSFontService,sans-serif" font-weight="400" font-size="13" x="692.579" y="54"></tspan><tspan font-weight="400" font-size="13" x="722.579" y="54">医疗场景极度碎片化，</tspan><tspan font-weight="400" font-size="13" x="855.912" y="54">2C</tspan><tspan font-weight="400" font-size="13" x="871.245" y="54">商业化的机遇来自于生命周期两端</tspan><tspan fill="#4472C4" font-family="Wingdings,Wingdings_MSFontService,sans-serif" font-weight="400" font-size="13" x="740.579" y="78"></tspan><tspan font-weight="400" font-size="13" x="770.579" y="78">类型一（从左往右）：通过前端场景到后端服务的连接能力变现</tspan><tspan fill="#4472C4" font-family="Wingdings,Wingdings_MSFontService,sans-serif" font-weight="400" font-size="13" x="740.579" y="102"></tspan><tspan font-weight="400" font-size="13" x="770.579" y="102">类型二（直接到右）：深入垂直人群通过效果变现</tspan><tspan fill="#4472C4" font-family="Wingdings,Wingdings_MSFontService,sans-serif" font-weight="400" font-size="13" x="692.579" y="126"></tspan><tspan font-weight="400" font-size="13" x="722.579" y="126">类型一案例</tspan><tspan font-weight="400" font-size="13" x="789.245" y="126">1</tspan><tspan font-weight="400" font-size="13" x="796.245" y="126">：百度医疗是前者，具备良好的商业模式，但本质是“智商税”，留存</tspan><tspan font-weight="400" font-size="13" x="722.579" y="150">有很大的问题</tspan><tspan fill="#4472C4" font-family="Wingdings,Wingdings_MSFontService,sans-serif" font-weight="400" font-size="13" x="740.579" y="174"></tspan><tspan font-weight="400" font-size="13" x="770.579" y="174">百度本质是医疗资源错配，不是匹配（</tspan><tspan fill="#FF0000" font-style="oblique" font-weight="400" font-size="13" x="997.245" y="174">偏见？</tspan><tspan font-weight="400" font-size="13" x="1037.25" y="174">）</tspan><tspan fill="#4472C4" font-family="Wingdings,Wingdings_MSFontService,sans-serif" font-weight="400" font-size="13" x="692.579" y="198"></tspan><tspan font-weight="400" font-size="13" x="722.579" y="198">类型一案例</tspan><tspan font-weight="400" font-size="13" x="789.245" y="198">2</tspan><tspan font-weight="400" font-size="13" x="796.245" y="198">：小红书是内容生态，比搜索更好的商业模式。</tspan><tspan fill="#4472C4" font-family="Wingdings,Wingdings_MSFontService,sans-serif" font-weight="400" font-size="13" x="740.579" y="222"></tspan><tspan font-weight="400" font-size="13" x="770.579" y="222">但在健康领域，内容生态的底层逻辑不存在。养生、生活方式可行</tspan><tspan fill="#4472C4" font-family="Wingdings,Wingdings_MSFontService,sans-serif" font-weight="400" font-size="13" x="692.579" y="246"></tspan><tspan font-weight="400" font-size="13" x="722.579" y="246">类型二：效果类产品，含数字疗法、心理服务、减肥等。需要细粒度理解市场，</tspan><tspan font-weight="400" font-size="13" x="722.579" y="270">运营端不可避免</tspan><tspan fill="#4472C4" font-family="Wingdings,Wingdings_MSFontService,sans-serif" font-weight="400" font-size="13" x="740.579" y="294"></tspan><tspan font-weight="400" font-size="13" x="770.579" y="294">胜负手判断：渠道把握和患者销售端</tspan></text><rect x="23" y="122" width="391" height="461" fill="#5B9BD5" fill-opacity="0.2"/><rect x="294" y="251" width="410" height="332" fill="#FFC000" fill-opacity="0.2"/><path d="M59.1671 445.167 656.976 445.167 656.976 445.833 59.1671 445.833ZM60.5001 449.5 52.5001 445.5 60.5001 441.5ZM655.643 441.5 663.643 445.5 655.643 449.5Z" fill="#4472C4"/><path d="M0.333335 6.6664 0.333437 423.894-0.33323 423.894-0.333332 6.6664ZM-4 8 0 0 4 8ZM4.0001 422.56 0.000104987 430.56-3.9999 422.56Z" fill="#4472C4" transform="matrix(1 0 0 -1 418.5 545.06)"/><text font-family="DengXian,DengXian_MSFontService,sans-serif" font-weight="700" font-size="19" transform="translate(422.551 144)">不适<tspan font-size="19" x="0" y="395">重症</tspan><tspan font-size="19" x="1.01544" y="154">轻症</tspan><tspan font-size="13" x="-353.518" y="320">信息</tspan><tspan font-size="13" x="-353.518" y="336">查询</tspan><tspan font-size="13" x="-280.053" y="320">自我</tspan><tspan font-size="13" x="-280.053" y="336">诊断</tspan><tspan font-size="13" x="-200.873" y="319">寻医</tspan><tspan font-size="13" x="-200.873" y="335">问药</tspan><tspan font-size="13" x="-121.565" y="319">检查</tspan><tspan font-size="13" x="-121.565" y="335">监测</tspan><tspan font-size="13" x="-42.3851" y="319">问诊</tspan><tspan font-size="13" x="-42.3851" y="335">诊断</tspan><tspan font-size="13" x="48.3679" y="318">日常</tspan><tspan font-size="13" x="48.3679" y="334">处置</tspan><tspan font-size="13" x="123.06" y="318">住院</tspan><tspan font-size="13" x="123.06" y="334">处置</tspan><tspan font-size="13" x="195.113" y="318">康复</tspan><tspan font-size="13" x="195.113" y="334">管理</tspan></text><path d="M223 256C223 209.056 261.056 171 308 171 354.944 171 393 209.056 393 256 393 302.944 354.944 341 308 341 261.056 341 223 302.944 223 256Z" fill="#ED7D31" fill-rule="evenodd"/><text fill="#FFFFFF" font-family="DengXian,DengXian_MSFontService,sans-serif" font-weight="700" font-size="19" transform="translate(272.043 262)">健康<tspan font-size="19" x="37.3333" y="0">ABC</tspan></text><path d="M66 364C66 338.043 87.2665 317 113.5 317 139.734 317 161 338.043 161 364 161 389.957 139.734 411 113.5 411 87.2665 411 66 389.957 66 364Z" fill="#002060" fill-rule="evenodd"/><text fill="#FFFFFF" font-family="DengXian,DengXian_MSFontService,sans-serif" font-weight="700" font-size="16" transform="translate(97.6059 360)">健康<tspan font-size="16" x="0" y="19">助手</tspan></text><path d="M197 405C197 384.013 214.013 367 235 367 255.987 367 273 384.013 273 405 273 425.987 255.987 443 235 443 214.013 443 197 425.987 197 405Z" fill="#00B050" fill-rule="evenodd"/><text fill="#FFFFFF" font-family="DengXian,DengXian_MSFontService,sans-serif" font-weight="700" font-size="16" transform="translate(219.186 401)">随身<tspan font-size="16" x="0" y="19">药师</tspan></text><path d="M56 142.5C56 126.76 68.7599 114 84.5 114 100.24 114 113 126.76 113 142.5 113 158.24 100.24 171 84.5 171 68.7599 171 56 158.24 56 142.5Z" fill="#00B050" fill-rule="evenodd"/><text fill="#FFFFFF" font-family="DengXian,DengXian_MSFontService,sans-serif" font-weight="700" font-size="9" transform="translate(75.1167 135)">私人<tspan font-size="9" x="0" y="11">营养</tspan><tspan font-size="9" x="4.66666" y="22">师</tspan></text><path d="M603 390C603 374.536 615.76 362 631.5 362 647.24 362 660 374.536 660 390 660 405.464 647.24 418 631.5 418 615.76 418 603 405.464 603 390Z" fill="#4472C4" fill-rule="evenodd"/><text fill="#FFFFFF" font-family="DengXian,DengXian_MSFontService,sans-serif" font-weight="700" font-size="9" transform="translate(623.344 382)">CBT<tspan font-size="9" x="-1" y="11">数字</tspan><tspan font-size="9" x="-1" y="22">疗法</tspan></text><path d="M603 332.5C603 316.76 615.76 304 631.5 304 647.24 304 660 316.76 660 332.5 660 348.24 647.24 361 631.5 361 615.76 361 603 348.24 603 332.5Z" fill="#4472C4" fill-rule="evenodd"/><text fill="#FFFFFF" font-family="DengXian,DengXian_MSFontService,sans-serif" font-weight="700" font-size="9" transform="translate(622.344 325)">睡眠<tspan font-size="9" x="0" y="11">数字</tspan><tspan font-size="9" x="0" y="22">疗法</tspan></text><path d="M648 352.5C648 336.76 660.536 324 676 324 691.464 324 704 336.76 704 352.5 704 368.24 691.464 381 676 381 660.536 381 648 368.24 648 352.5Z" fill="#4472C4" fill-rule="evenodd"/><text fill="#FFFFFF" font-family="DengXian,DengXian_MSFontService,sans-serif" font-weight="700" font-size="9" transform="translate(666.806 345)">皮肤<tspan font-size="9" x="0" y="11">数字</tspan><tspan font-size="9" x="0" y="22">疗法</tspan></text><path d="M598 154C598 133.013 615.013 116 636 116 656.987 116 674 133.013 674 154 674 174.987 656.987 192 636 192 615.013 192 598 174.987 598 154Z" fill="#ED7D31" fill-rule="evenodd"/><text fill="#FFFFFF" font-family="DengXian,DengXian_MSFontService,sans-serif" font-weight="700" font-size="16" transform="translate(620.236 150)">减重<tspan font-size="16" x="0" y="19">助手</tspan></text><path d="M460 144.5C460 128.76 472.76 116 488.5 116 504.24 116 517 128.76 517 144.5 517 160.24 504.24 173 488.5 173 472.76 173 460 160.24 460 144.5Z" fill="#FFC000" fill-rule="evenodd"/><text fill="#FFFFFF" font-family="DengXian,DengXian_MSFontService,sans-serif" font-weight="700" font-size="9" transform="translate(479.451 137)">聊愈<tspan font-size="9" x="0" y="11">小宇</tspan><tspan font-size="9" x="4.66666" y="22">宙</tspan></text><rect x="373" y="601" width="24" height="19" fill="#FFC000" fill-opacity="0.2"/><text font-family="DengXian,DengXian_MSFontService,sans-serif" font-weight="700" font-size="19" transform="translate(403.884 616)">医院服务</text><rect x="207" y="600" width="23" height="20" fill="#5B9BD5" fill-opacity="0.2"/><text font-family="DengXian,DengXian_MSFontService,sans-serif" font-weight="700" font-size="19" transform="translate(244.05 616)">互联网医疗</text><path d="M342.913 512.088 382.913 512.088 382.913 526.088 342.913 526.088Z" fill="#FFFF00" fill-rule="evenodd"/><text font-family="DengXian,DengXian_MSFontService,sans-serif" font-style="oblique" font-weight="400" font-size="13" transform="translate(342.913 522)">好大夫</text><path d="M73.1161 422.403 99.7827 422.403 99.7827 436.403 73.1161 436.403Z" fill="#FFFF00" fill-rule="evenodd"/><text font-family="DengXian,DengXian_MSFontService,sans-serif" font-style="oblique" font-weight="400" font-size="13" transform="translate(73.1161 432)">百度</text><path d="M62.3661 185.094 102.366 185.094 102.366 199.094 62.3661 199.094Z" fill="#FFFF00" fill-rule="evenodd"/><text font-family="DengXian,DengXian_MSFontService,sans-serif" font-style="oblique" font-weight="400" font-size="13" transform="translate(62.3661 195)">小红书</text><path d="M633.383 201.9 673.383 201.9 673.383 215.9 633.383 215.9Z" fill="#FFFF00" fill-rule="evenodd"/><text font-family="DengXian,DengXian_MSFontService,sans-serif" font-style="oblique" font-weight="400" font-size="13" transform="translate(633.383 212)">小红书</text><path d="M462 641.5C462 637.91 464.91 635 468.5 635 472.09 635 475 637.91 475 641.5 475 645.09 472.09 648 468.5 648 464.91 648 462 645.09 462 641.5Z" fill="#4472C4" fill-rule="evenodd"/><text font-family="DengXian,DengXian_MSFontService,sans-serif" font-weight="400" font-size="19" transform="translate(485.028 647)">数字疗法</text><path d="M206 644.5C206 640.91 208.91 638 212.5 638 216.09 638 219 640.91 219 644.5 219 648.09 216.09 651 212.5 651 208.91 651 206 648.09 206 644.5Z" fill="#ED7D31" fill-rule="evenodd"/><text font-family="DengXian,DengXian_MSFontService,sans-serif" font-weight="400" font-size="19" transform="translate(229.365 650)">健康监测</text><path d="M83 644.5C83 640.91 85.9101 638 89.5 638 93.0899 638 96 640.91 96 644.5 96 648.09 93.0899 651 89.5 651 85.9101 651 83 648.09 83 644.5Z" fill="#00B050" fill-rule="evenodd"/><text font-family="DengXian,DengXian_MSFontService,sans-serif" font-weight="400" font-size="19" transform="translate(106.569 650)">健康咨询</text><path d="M340 643.5C340 639.91 342.91 637 346.5 637 350.09 637 353 639.91 353 643.5 353 647.09 350.09 650 346.5 650 342.91 650 340 647.09 340 643.5Z" fill="#002060" fill-rule="evenodd"/><text font-family="DengXian,DengXian_MSFontService,sans-serif" font-weight="400" font-size="19" transform="translate(363.319 649)">自我诊断</text><path d="M505.877 551.566 559.211 551.566 559.211 565.566 505.877 565.566Z" fill="#FFFF00" fill-rule="evenodd"/><text font-family="DengXian,DengXian_MSFontService,sans-serif" font-style="oblique" font-weight="400" font-size="13" transform="translate(505.877 562)">三甲医院</text><path d="M428.9 326.228 455.566 326.228 455.566 340.228 428.9 340.228Z" fill="#FFFF00" fill-rule="evenodd"/><text font-family="DengXian,DengXian_MSFontService,sans-serif" font-style="oblique" font-weight="400" font-size="13" transform="translate(428.9 336)">诊所</text><path d="M253.088 344.983 279.755 344.983 279.755 358.983 253.088 358.983Z" fill="#FFFF00" fill-rule="evenodd"/><text font-family="DengXian,DengXian_MSFontService,sans-serif" font-style="oblique" font-weight="400" font-size="13" transform="translate(253.088 355)">药店<tspan font-style="normal" font-weight="700" font-size="19" x="416.996" y="96">利润</tspan><tspan font-style="normal" font-weight="700" font-size="19" x="-245.703" y="97">流量</tspan><tspan font-style="normal" font-weight="700" font-size="24" x="462.128" y="81">2. </tspan><tspan font-style="normal" font-weight="700" font-size="24" x="487.961" y="81">大模型能力匹配</tspan></text><path d="M1073.39 458.46 1153.39 458.46 1153.39 472.46 1073.39 472.46Z" fill="#FFFF00" fill-rule="evenodd"/><path d="M783.724 482.46 810.391 482.46 810.391 496.46 783.724 496.46Z" fill="#FFFF00" fill-rule="evenodd"/><text fill="#4472C4" font-family="Wingdings,Wingdings_MSFontService,sans-serif" font-weight="400" font-size="13" transform="translate(711.557 468)"><tspan fill="#000000" font-family="DengXian,DengXian_MSFontService,sans-serif" font-size="13" x="30" y="0">做业务并不一定需要大模型，这点首先要牢记，只看</tspan><tspan fill="#000000" font-family="DengXian,DengXian_MSFontService,sans-serif" font-size="13" x="336.667" y="0">AI</tspan><tspan fill="#000000" font-family="DengXian,DengXian_MSFontService,sans-serif" font-size="13" x="348.5" y="0">会</tspan><tspan fill="#000000" font-family="DengXian,DengXian_MSFontService,sans-serif" font-size="13" x="361.833" y="0">越做越死胡同</tspan><tspan font-size="13" x="0" y="24"></tspan><tspan fill="#000000" font-family="DengXian,DengXian_MSFontService,sans-serif" font-size="13" x="30" y="24">记忆</tspan><tspan fill="#000000" font-family="DengXian,DengXian_MSFontService,sans-serif" font-size="13" x="56.6666" y="24">-</tspan><tspan fill="#000000" font-family="DengXian,DengXian_MSFontService,sans-serif" font-size="13" x="63.3333" y="24">&gt;</tspan><tspan fill="#000000" font-family="DengXian,DengXian_MSFontService,sans-serif" font-weight="700" font-size="13" x="72.1666" y="24">组合</tspan><tspan fill="#000000" font-family="DengXian,DengXian_MSFontService,sans-serif" font-size="13" x="98.8333" y="24">-</tspan><tspan fill="#000000" font-family="DengXian,DengXian_MSFontService,sans-serif" font-size="13" x="105.5" y="24">&gt;</tspan><tspan fill="#000000" font-family="DengXian,DengXian_MSFontService,sans-serif" font-size="13" x="114.333" y="24">探索</tspan><tspan fill="#000000" font-family="DengXian,DengXian_MSFontService,sans-serif" font-size="13" x="141" y="24">-</tspan><tspan fill="#000000" font-family="DengXian,DengXian_MSFontService,sans-serif" font-size="13" x="147.667" y="24">&gt;</tspan><tspan fill="#000000" font-family="DengXian,DengXian_MSFontService,sans-serif" font-size="13" x="156.5" y="24">创作</tspan><tspan font-size="13" x="0" y="48"></tspan><tspan fill="#000000" font-family="DengXian,DengXian_MSFontService,sans-serif" font-size="13" x="30" y="48">类型一：大模型具备整合碎片化场景，形成服务极致连接。但横着做不具备可行</tspan><tspan fill="#000000" font-family="DengXian,DengXian_MSFontService,sans-serif" font-size="13" x="30" y="72">性，反而明确的场景切入尤其关键</tspan><tspan font-size="13" x="48" y="96"></tspan><tspan fill="#000000" font-family="DengXian,DengXian_MSFontService,sans-serif" font-size="13" x="78" y="96">胜负手判断：能够在一个场景上形成用户心智</tspan><tspan font-size="13" x="48" y="120"></tspan><tspan fill="#000000" font-family="DengXian,DengXian_MSFontService,sans-serif" font-size="13" x="78" y="120">风险：点太小，一定要以小见大</tspan><tspan font-size="13" x="0" y="144"></tspan><tspan fill="#000000" font-family="DengXian,DengXian_MSFontService,sans-serif" font-size="13" x="30" y="144">类型二：大模型对效果类产品核心价值还在于降低两端成本。一方面降低服务端</tspan><tspan fill="#000000" font-family="DengXian,DengXian_MSFontService,sans-serif" font-size="13" x="30" y="168">人力，另一方面降低获客成本</tspan><tspan font-size="13" x="48" y="192"></tspan><tspan fill="#000000" font-family="DengXian,DengXian_MSFontService,sans-serif" font-size="13" x="78" y="192">胜负手判断：服务端成本制约的业务关键在于有效抑制幻觉；获客端成本</tspan><tspan fill="#000000" font-family="DengXian,DengXian_MSFontService,sans-serif" font-size="13" x="78" y="216">制约的业务关键在于类游戏、类内容的</tspan><tspan fill="#000000" font-family="DengXian,DengXian_MSFontService,sans-serif" font-size="13" x="304.667" y="216">AIGC</tspan><tspan fill="#000000" font-family="DengXian,DengXian_MSFontService,sans-serif" font-size="13" x="333.833" y="216">与营销的强结合</tspan><tspan font-size="13" x="48" y="240"></tspan><tspan fill="#000000" font-family="DengXian,DengXian_MSFontService,sans-serif" font-size="13" x="78" y="240">风险：销售端能力不足</tspan></text></g></svg>